<?xml version="1.0" encoding="UTF-8"?><svg xmlns="http://www.w3.org/2000/svg" viewBox="0 0 632.68 188.53"><defs><style>.cls-1{fill:#fff;}</style></defs><g id="_层_4"><g><circle class="cls-1" cx="98.07" cy="57.55" r="5.23"/><path class="cls-1" d="M4.3,102.1C-3.83,63.83,20.6,26.21,58.87,18.07c1.37-.29,2.74-.54,4.11-.75l-3.36-15.81c37.36-7.94,74.14,16.18,82.08,53.54,1.25,5.9,1.71,11.78,1.45,17.53l-.26,.06-.65,.14L27.8,97.1l-4.29,.94c4.76,22.38,26.76,36.67,49.14,31.91,6.11-1.3,11.61-3.88,16.29-7.41l1.64,3.71c.71,1.6,2.94,1.69,3.77,.16l2.05-3.75c.33-.61,.94-1.01,1.63-1.08l4.25-.44c1.74-.18,2.51-2.27,1.32-3.54l-2.93-3.11c-.48-.5-.67-1.21-.53-1.89l.9-4.18c.37-1.71-1.38-3.09-2.96-2.35l-3.86,1.83c-.63,.3-1.36,.27-1.96-.08l-3.7-2.15c-1.51-.88-3.37,.36-3.15,2.09l.55,4.24c-8.76,1.34-15.14-5.36-15.52-11.94l38.22-8.12c10.04-2.13,16.73,7,14.06,14.86-6.45,20.2-21.3,36.87-45.91,42.46-32.88,7.47-65.48-14.15-72.49-47.14M112.96,46.77c-2.78-13.1-15.66-21.46-28.76-18.68-13.1,2.78-21.46,15.66-18.68,28.76,2.78,13.1,15.66,21.46,28.76,18.68s21.46-15.66,18.68-28.76Z"/></g></g><g id="_层_5"><g><path class="cls-1" d="M133.61,113.11c0-21.84,12.74-36.92,31.98-36.92,5.85,0,12.09,2.34,17.29,6.11v-4.42h20.8v53.82c0,7.02,.91,12.48,2.6,16.38h-19.5c-.65-1.17-1.17-2.73-1.56-4.68-5.33,4.29-11.7,6.37-19.11,6.37-19.37,0-32.5-14.3-32.5-36.66Zm37.05,21.71c4.16,0,10.01-1.17,13.78-7.28v-29.12c-3.77-6.11-9.49-7.15-13.78-7.15-9.23,0-17.16,9.62-17.16,21.84s7.93,21.71,17.16,21.71Z"/><path class="cls-1" d="M240.34,149.12c-15.6,0-23.66-8.84-23.66-25.87V48.11h20.8V118.05c0,6.89,.91,10.14,3.38,12.09,.91,.78,2.08,1.3,3.25,1.43,1.17,.26,3.12,.39,6.11,.39v17.16h-9.88Z"/><path class="cls-1" d="M255.42,113.11c0-21.84,12.74-36.92,31.98-36.92,5.85,0,12.09,2.34,17.29,6.11v-4.42h20.8v53.82c0,7.02,.91,12.48,2.6,16.38h-19.5c-.65-1.17-1.17-2.73-1.56-4.68-5.33,4.29-11.7,6.37-19.11,6.37-19.37,0-32.5-14.3-32.5-36.66Zm37.05,21.71c4.16,0,10.01-1.17,13.78-7.28v-29.12c-3.77-6.11-9.49-7.15-13.78-7.15-9.23,0-17.16,9.62-17.16,21.84s7.93,21.71,17.16,21.71Z"/><path class="cls-1" d="M396.99,145.74c-6.63,2.73-13.52,4.03-20.54,4.03-23.79,0-40.56-15.34-40.56-36.27,0-22.1,15.99-37.18,39.65-37.18,6.76,0,13.65,1.17,20.54,3.64v15.99c-5.33-2.21-10.66-3.38-16.25-3.38-13.65,0-23.79,5.98-23.79,20.93,0,12.22,10.79,19.76,24.44,19.76,6.37,0,12.48-1.95,16.51-5.2v17.68Z"/><path class="cls-1" d="M471.22,144.31c-6.63,4.03-15.99,5.85-24.18,5.85-27.69,0-42.25-13.78-42.25-37.57s13.65-36.53,35.62-36.53,35.49,13,35.49,36.53c0,1.3-.13,3.12-.26,5.59h-50.57c1.95,11.18,9.23,16.77,21.97,16.77,8.97,0,17.03-2.6,24.18-7.93v17.29Zm-14.95-40.69c-2.21-8.71-8.06-12.74-15.86-12.74-7.28,0-12.61,4.42-14.69,12.74h30.55Z"/><path class="cls-1" d="M483.7,113.11c0-21.84,12.74-36.92,31.98-36.92,5.85,0,12.09,2.34,17.29,6.11v-4.42h20.8v53.82c0,7.02,.91,12.48,2.6,16.38h-19.5c-.65-1.17-1.17-2.73-1.56-4.68-5.33,4.29-11.7,6.37-19.11,6.37-19.37,0-32.5-14.3-32.5-36.66Zm37.05,21.71c4.16,0,10.01-1.17,13.78-7.28v-29.12c-3.77-6.11-9.49-7.15-13.78-7.15-9.23,0-17.16,9.62-17.16,21.84s7.93,21.71,17.16,21.71Z"/><path class="cls-1" d="M587.56,77.62v8.45c6.37-5.59,15.08-8.84,23.27-8.84,13.39,0,21.84,8.58,21.84,21.06v49.53h-20.8v-46.02c0-5.07-4.81-8.58-10.53-8.58-3.64,0-10.01,2.73-13.78,6.24v48.36h-20.8V77.62h20.8Z"/></g></g></svg>
